<svg width="100" height="100" fill="none" xmlns="http://www.w3.org/2000/svg"><g filter="url(#filter0_f)"><path fill="#248939" fill-opacity=".41" d="M30 30h40v40H30z"/></g><rect x="21" y="7" width="54" height="54" rx="4" fill="#fff"/><g opacity=".87" fill-rule="evenodd" clip-rule="evenodd" fill="#29C639"><path d="M48 20.5c-7.456 0-13.5 6.044-13.5 13.5S40.544 47.5 48 47.5 61.5 41.456 61.5 34 55.456 20.5 48 20.5zM31.5 34c0-9.113 7.387-16.5 16.5-16.5S64.5 24.887 64.5 34 57.113 50.5 48 50.5 31.5 43.113 31.5 34z"/><path d="M48 23.5a1.5 1.5 0 011.5 1.5v8.073l5.17 2.585a1.5 1.5 0 11-1.34 2.684l-6-3A1.5 1.5 0 0146.5 34v-9a1.5 1.5 0 011.5-1.5z"/></g><defs><filter id="filter0_f" x="0" y="0" width="100" height="100" filterUnits="userSpaceOnUse" color-interpolation-filters="sRGB"><feFlood flood-opacity="0" result="BackgroundImageFix"/><feBlend in="SourceGraphic" in2="BackgroundImageFix" result="shape"/><feGaussianBlur stdDeviation="15" result="effect1_foregroundBlur"/></filter></defs></svg>