<svg width="100" height="100" fill="none" xmlns="http://www.w3.org/2000/svg"><g filter="url(#filter0_f)"><path fill="#248939" fill-opacity=".41" d="M30 30h40v40H30z"/></g><rect x="21" y="7" width="54" height="54" rx="4" fill="#fff"/><path fill-rule="evenodd" clip-rule="evenodd" d="M48.5 20C41.044 20 35 26.044 35 33.5S41.044 47 48.5 47 62 40.956 62 33.5 55.956 20 48.5 20zM32 33.5C32 24.387 39.387 17 48.5 17S65 24.387 65 33.5 57.613 50 48.5 50 32 42.613 32 33.5z" fill="#29C639"/><path fill-rule="evenodd" clip-rule="evenodd" d="M32 33.5a1.5 1.5 0 011.5-1.5h30a1.5 1.5 0 010 3h-30a1.5 1.5 0 01-1.5-1.5z" fill="#29C639"/><path fill-rule="evenodd" clip-rule="evenodd" d="M44 33.5a21.451 21.451 0 004.5 12.674A21.451 21.451 0 0053 33.5a21.451 21.451 0 00-4.5-12.674A21.451 21.451 0 0044 33.5zm4.5-15l-1.108-1.012A24.45 24.45 0 0041 33.531a24.45 24.45 0 006.392 15.98 1.5 1.5 0 002.215 0A24.45 24.45 0 0056 33.47a24.45 24.45 0 00-6.392-15.98L48.5 18.5z" fill="#29C639"/><defs><filter id="filter0_f" x="0" y="0" width="100" height="100" filterUnits="userSpaceOnUse" color-interpolation-filters="sRGB"><feFlood flood-opacity="0" result="BackgroundImageFix"/><feBlend in="SourceGraphic" in2="BackgroundImageFix" result="shape"/><feGaussianBlur stdDeviation="15" result="effect1_foregroundBlur"/></filter></defs></svg>