<svg width="100" height="100" fill="none" xmlns="http://www.w3.org/2000/svg"><g filter="url(#filter0_f)"><path fill="#248939" fill-opacity=".41" d="M30 30h40v40H30z"/></g><rect x="21" y="7" width="54" height="54" rx="4" fill="#fff"/><g opacity=".87" fill-rule="evenodd" clip-rule="evenodd" fill="#29C639"><path d="M65.186 25.166c.5.257.814.772.814 1.334v15a1.5 1.5 0 01-2.372 1.22l-10.5-7.5a1.5 1.5 0 010-2.44l10.5-7.5a1.5 1.5 0 011.558-.114zM56.581 34L63 38.585v-9.17L56.58 34z"/><path d="M34.5 25a1.5 1.5 0 00-1.5 1.5v15a1.5 1.5 0 001.5 1.5H51a1.5 1.5 0 001.5-1.5v-15A1.5 1.5 0 0051 25H34.5zM30 26.5a4.5 4.5 0 014.5-4.5H51a4.5 4.5 0 014.5 4.5v15A4.5 4.5 0 0151 46H34.5a4.5 4.5 0 01-4.5-4.5v-15z"/></g><defs><filter id="filter0_f" x="0" y="0" width="100" height="100" filterUnits="userSpaceOnUse" color-interpolation-filters="sRGB"><feFlood flood-opacity="0" result="BackgroundImageFix"/><feBlend in="SourceGraphic" in2="BackgroundImageFix" result="shape"/><feGaussianBlur stdDeviation="15" result="effect1_foregroundBlur"/></filter></defs></svg>